<svg xmlns="http://www.w3.org/2000/svg" xmlns:xlink="http://www.w3.org/1999/xlink" id="Layer_1" x="0" y="0" enable-background="new 0 0 512 512" version="1.1" viewBox="0 0 512 512" xml:space="preserve"><style type="text/css">.st0{fill:#29d682}.st1{fill:#fff}.st2{fill:#4d4d4d}.st3{fill:none}</style><g id="New_Symbol-3"><g id="_Group_2_2_"><g><g id="_Group_3_2_"><g id="_Group_4_2_"><path d="M0.8,255.9L0.8,255.9c0,140.8,114.2,255,255,255h0c140.8,0,255-114.2,255-255v0c0-140.8-114.2-255-255-255 h0C115,0.9,0.8,115.1,0.8,255.9z" class="st0"/></g></g></g></g><rect width="28.5" height="72.1" x="291.5" y="340" class="st1"/><rect width="28.5" height="72.1" x="241.6" y="340" class="st1"/><rect width="28.5" height="72.1" x="191.7" y="340" class="st1"/><rect width="28.5" height="72.1" x="291.5" y="99.7" class="st1"/><rect width="28.5" height="72.1" x="241.6" y="99.7" class="st1"/><rect width="28.5" height="72.1" x="191.7" y="99.7" class="st1"/><rect width="72" height="28.5" x="99.6" y="291.5" class="st1"/><rect width="72" height="28.5" x="99.6" y="241.6" class="st1"/><rect width="72" height="28.5" x="99.6" y="191.7" class="st1"/><rect width="72" height="28.5" x="340" y="291.5" class="st1"/><rect width="72" height="28.5" x="340" y="241.6" class="st1"/><rect width="72" height="28.5" x="340" y="191.7" class="st1"/><path d="M327.8,158.9c13.9,0,25.1,11.3,25,25.1v143.8c0,13.9-11.2,25.1-25.1,25.1H183.9c-13.9,0-25.1-11.2-25.1-25.1 V184c0,0,0,0,0-0.1c0-13.9,11.2-25.1,25.1-25.1L327.8,158.9C327.8,158.9,327.8,158.9,327.8,158.9z" class="st2"/><path d="M197.8,221.6c10.4,0,18.8-8.4,18.8-18.8c0-10.4-8.4-18.8-18.8-18.8c-10.4,0-18.8,8.4-18.8,18.8 C179,213.2,187.4,221.6,197.8,221.6C197.8,221.6,197.8,221.6,197.8,221.6z" class="st1"/><rect width="512" height="512" class="st3"/></g></svg>