<svg xmlns="http://www.w3.org/2000/svg" xmlns:svg="http://www.w3.org/2000/svg" xmlns:xlink="http://www.w3.org/1999/xlink" id="svg2606" width="128" height="128" version="1.0"><metadata id="metadata58"/><defs id="defs2608"><linearGradient id="linearGradient10207"><stop id="stop10209" offset="0" stop-color="#a2a2a2" stop-opacity="1"/><stop id="stop10211" offset="1" stop-color="#fff" stop-opacity="1"/></linearGradient><linearGradient id="XMLID_12_" x1="96" x2="88" y1="104" y2="96" gradientUnits="userSpaceOnUse"><stop id="stop83" offset="0" stop-color="#888A85"/><stop id="stop85" offset=".007" stop-color="#8C8E89"/><stop id="stop87" offset=".067" stop-color="#ABACA9"/><stop id="stop89" offset=".135" stop-color="#C5C6C4"/><stop id="stop91" offset=".265" stop-color="#DBDBDA"/><stop id="stop93" offset=".376" stop-color="#EBEBEB"/><stop id="stop95" offset=".487" stop-color="#F7F7F6"/><stop id="stop97" offset=".632" stop-color="#FDFDFD"/><stop id="stop99" offset="1" stop-color="#FFF"/></linearGradient><radialGradient id="XMLID_8_" cx="102" cy="112.305" r="139.559" gradientUnits="userSpaceOnUse"><stop id="stop41" offset="0" stop-color="#b7b8b9" stop-opacity="1"/><stop id="stop47" offset=".189" stop-color="#ECECEC"/><stop id="stop49" offset=".257" stop-color="#FAFAFA"/><stop id="stop51" offset=".301" stop-color="#FFF"/><stop id="stop53" offset=".531" stop-color="#FAFAFA"/><stop id="stop55" offset=".845" stop-color="#EBECEC"/><stop id="stop57" offset="1" stop-color="#E1E2E3"/></radialGradient><filter id="filter6697" width="1.384" height="1.384" x="-.192" y="-.192"><feGaussianBlur id="feGaussianBlur6699" stdDeviation="1.945"/></filter><clipPath id="clipPath7084" clipPathUnits="userSpaceOnUse"><path id="path7086" fill="#000" fill-opacity="1" fill-rule="evenodd" stroke="none" stroke-linecap="butt" stroke-linejoin="miter" stroke-opacity="1" stroke-width="1" d="M 72,88 L 40,120 L 32,120 L 32,80 L 72,80 L 72,88 z"/></clipPath><radialGradient id="radialGradient9437" cx="102" cy="112.305" r="139.559" gradientTransform="matrix(1,0,0,0.9996653,2e-6,3.0160848e-3)" gradientUnits="userSpaceOnUse" xlink:href="#XMLID_8_"/><linearGradient id="linearGradient10213" x1="98.617" x2="91.229" y1="106.414" y2="99.255" gradientUnits="userSpaceOnUse" xlink:href="#linearGradient10207"/><filter id="filter2770"><feGaussianBlur id="feGaussianBlur2772" stdDeviation="2.079"/></filter></defs><g id="layer1"><path id="path7865" fill="#000" fill-opacity="1" d="M 16,8 L 16,120 C 16,120 79.15625,120 79.15625,120 L 79.1875,120 C 79.187503,120 91.09375,110.09375 96.59375,104.59375 C 102.09375,99.09375 112,87.1875 112,87.1875 L 112,87.15625 L 112,8 L 16,8 z" filter="url(#filter2770)" opacity=".5" transform="matrix(1.0416667,0,0,1.0267857,-2.6666667,-1.2142891)"/><path id="path34" fill="#fff" fill-opacity="1" d="M 16.000001,8 L 16,120 C 16,120 79.146418,120 79.146418,120 L 112,87.14642 L 112,8 L 16.000001,8 z"/><path id="path59" fill="url(#radialGradient9437)" fill-opacity="1" d="M 18.000002,9.0000034 C 17.449002,9.0000034 17.000002,9.4488534 17.000002,9.9996684 L 17.000002,117.96352 C 17.000002,118.51533 17.449002,118.96318 18.000002,118.96318 L 77.171999,118.96318 C 77.434999,118.96318 79.934679,119.08131 80.12068,118.89438 L 110.707,88.094202 C 110.894,87.907264 111,85.40942 111,85.146508 L 111,9.9996684 C 111,9.4488534 110.552,9.0000034 110,9.0000034 L 18.000002,9.0000034 z"/><path id="path5540" fill="#000" fill-opacity="1" d="M 41.879531,115.98249 C 41.879531,115.98249 66.18914,91.672876 66.18914,91.672876 C 66.18914,91.672876 56.836,94.586 46.586,94.586 C 46.586,104.836 41.879531,115.98249 41.879531,115.98249 z" clip-path="url(#clipPath7084)" filter="url(#filter6697)" opacity=".4" transform="translate(40,0)"/><path id="path14523" fill="url(#linearGradient10213)" fill-opacity="1" d="M 79.172,120 C 79.172,120 91.086,110.086 96.586,104.586 C 102.086,99.086 112,87.172 112,87.172 C 112,87.172 98.25,96 88,96 C 88,106.25 79.172,120 79.172,120 z"/><g id="New_Symbol-3" transform="matrix(0.14306641,0,0,0.14306641,27.75,24.75)"><g id="_Group_2_2_"><g id="g3593"><g id="_Group_3_2_"><g id="_Group_4_2_"><path id="path3597" fill="#29d682" d="m 0.8,255.9 0,0 c 0,140.8 114.2,255 255,255 l 0,0 c 140.8,0 255,-114.2 255,-255 l 0,0 c 0,-140.8 -114.2,-255 -255,-255 l 0,0 C 115,0.9 0.8,115.1 0.8,255.9 Z" class="st0"/></g></g></g></g><rect id="rect3599" width="28.5" height="72.1" x="291.5" y="340" fill="#fff" class="st1"/><rect id="rect3601" width="28.5" height="72.1" x="241.6" y="340" fill="#fff" class="st1"/><rect id="rect3603" width="28.5" height="72.1" x="191.7" y="340" fill="#fff" class="st1"/><rect id="rect3605" width="28.5" height="72.1" x="291.5" y="99.7" fill="#fff" class="st1"/><rect id="rect3607" width="28.5" height="72.1" x="241.6" y="99.7" fill="#fff" class="st1"/><rect id="rect3609" width="28.5" height="72.1" x="191.7" y="99.7" fill="#fff" class="st1"/><rect id="rect3611" width="72" height="28.5" x="99.6" y="291.5" fill="#fff" class="st1"/><rect id="rect3613" width="72" height="28.5" x="99.6" y="241.6" fill="#fff" class="st1"/><rect id="rect3615" width="72" height="28.5" x="99.6" y="191.7" fill="#fff" class="st1"/><rect id="rect3617" width="72" height="28.5" x="340" y="291.5" fill="#fff" class="st1"/><rect id="rect3619" width="72" height="28.5" x="340" y="241.6" fill="#fff" class="st1"/><rect id="rect3621" width="72" height="28.5" x="340" y="191.7" fill="#fff" class="st1"/><path id="path3623" fill="#4d4d4d" d="m 327.8,158.9 c 13.9,0 25.1,11.3 25,25.1 l 0,143.8 c 0,13.9 -11.2,25.1 -25.1,25.1 l -143.8,0 c -13.9,0 -25.1,-11.2 -25.1,-25.1 l 0,-143.8 c 0,0 0,0 0,-0.1 0,-13.9 11.2,-25.1 25.1,-25.1 l 143.9,0.1 c 0,0 0,0 0,0 z" class="st2"/><path id="path3625" fill="#fff" d="m 197.8,221.6 c 10.4,0 18.8,-8.4 18.8,-18.8 0,-10.4 -8.4,-18.8 -18.8,-18.8 -10.4,0 -18.8,8.4 -18.8,18.8 0,10.4 8.4,18.8 18.8,18.8 0,0 0,0 0,0 z" class="st1"/><rect id="rect3627" width="512" height="512" x="0" y="0" fill="none" class="st3"/></g></g><style id="style3589" type="text/css">.st0{fill:#29d682}.st1{fill:#fff}.st2{fill:#4d4d4d}.st3{fill:none}</style></svg>